<?xml version="1.0" encoding="utf-8"?>
<!-- Generator: Adobe Illustrator 23.0.6, SVG Export Plug-In . SVG Version: 6.00 Build 0)  -->
<svg version="1.1" id="Layer_1" xmlns="http://www.w3.org/2000/svg" xmlns:xlink="http://www.w3.org/1999/xlink" x="0px" y="0px"
	 viewBox="0 0 200 139.7" style="enable-background:new 0 0 200 139.7;" xml:space="preserve">
<style type="text/css">
	.st0{fill:#EEEEEE;}
</style>
<g>
	<g>
		<path class="st0" d="M170.6,37.1H29.4c-4.4,0-8-3.6-8-8s3.6-8,8-8h141.2c4.4,0,8,3.6,8,8S175,37.1,170.6,37.1z"/>
	</g>
	<g>
		<path class="st0" d="M170.6,77.5H29.4c-4.4,0-8-3.6-8-8s3.6-8,8-8h141.2c4.4,0,8,3.6,8,8S175,77.5,170.6,77.5z"/>
	</g>
	<g>
		<path class="st0" d="M170.6,117.9H29.4c-4.4,0-8-3.6-8-8s3.6-8,8-8h141.2c4.4,0,8,3.6,8,8S175,117.9,170.6,117.9z"/>
	</g>
</g>
</svg>
